<svg xmlns="http://www.w3.org/2000/svg" width="3200" height="2700" viewBox="0 0 3200 2700">
  <defs>
    <style>
      .bg { fill: #080b0d; }
      .section { fill: #10171a; stroke: #445257; stroke-width: 2; stroke-dasharray: 10 10; rx: 18; }
      .box { fill: #182126; stroke: #91a69b; stroke-width: 2; rx: 10; }
      .head { fill: #d7e7d3; }
      .head-core { fill: #f1d9a7; }
      .head-unused { fill: #d1d1d1; }
      .title { fill: #101514; font: 700 24px "Malgun Gothic", "Noto Sans KR", sans-serif; text-anchor: middle; }
      .body { fill: #edf3ef; font: 18px "Malgun Gothic", "Noto Sans KR", sans-serif; text-anchor: middle; }
      .small { fill: #edf3ef; font: 16px "Malgun Gothic", "Noto Sans KR", sans-serif; text-anchor: middle; }
      .section-title { fill: #dce7df; font: 700 28px "Malgun Gothic", "Noto Sans KR", sans-serif; }
      .page-title { fill: #f4f7f5; font: 700 42px "Malgun Gothic", "Noto Sans KR", sans-serif; text-anchor: middle; }
      .subtitle { fill: #aebdb5; font: 20px "Malgun Gothic", "Noto Sans KR", sans-serif; text-anchor: middle; }
      .edge { fill: none; stroke: #91a69b; stroke-width: 3; marker-end: url(#arrow); }
      .edge-dynamic { fill: none; stroke: #e2bd73; stroke-width: 3; stroke-dasharray: 9 7; marker-end: url(#arrow-dynamic); }
      .edge-inherit { fill: none; stroke: #7eb5d6; stroke-width: 3; stroke-dasharray: 3 7; marker-end: url(#arrow-inherit); }
      .edge-label { fill: #cbd7d0; font: 17px "Malgun Gothic", "Noto Sans KR", sans-serif; text-anchor: middle; }
      .legend { fill: #cbd7d0; font: 17px "Malgun Gothic", "Noto Sans KR", sans-serif; }
    </style>
    <marker id="arrow" markerWidth="12" markerHeight="12" refX="10" refY="6" orient="auto">
      <path d="M0,0 L12,6 L0,12 z" fill="#91a69b"/>
    </marker>
    <marker id="arrow-dynamic" markerWidth="12" markerHeight="12" refX="10" refY="6" orient="auto">
      <path d="M0,0 L12,6 L0,12 z" fill="#e2bd73"/>
    </marker>
    <marker id="arrow-inherit" markerWidth="12" markerHeight="12" refX="10" refY="6" orient="auto">
      <path d="M0,0 L12,6 L0,12 z" fill="#7eb5d6"/>
    </marker>
  </defs>

  <rect class="bg" width="3200" height="2700"/>
  <text class="page-title" x="1600" y="58">Rebuilding Town 전체 씬 구조도</text>
  <text class="subtitle" x="1600" y="92">Godot 4.6 · 41개 씬 · 현재 프로젝트 연결 관계 기준</text>

  <!-- System / entry -->
  <rect class="section" x="60" y="120" width="3080" height="355"/>
  <text class="section-title" x="90" y="160">진입점과 전체 제어</text>

  <g transform="translate(150,195)">
    <rect class="box" width="450" height="210"/>
    <rect class="head-core" width="450" height="55"/>
    <text class="title" x="225" y="36">project.godot</text>
    <text class="body" x="225" y="90"><tspan x="225">실행 씬: main.tscn</tspan><tspan x="225" dy="29">Autoload: ArtifactCatalog</tspan><tspan x="225" dy="29">입력·렌더링·충돌 설정</tspan></text>
  </g>

  <g transform="translate(820,180)">
    <rect class="box" width="1560" height="250"/>
    <rect class="head-core" width="1560" height="62"/>
    <text class="title" x="780" y="40">main.tscn</text>
    <text class="body" x="780" y="98">
      <tspan x="780">월드 루트 · main.gd</tspan>
      <tspan x="780" dy="30">낮/밤, 날짜, 수입, 건물 효과, 주민 보충, 습격, 승리·게임오버 총괄</tspan>
      <tspan x="780" dy="30">직접 배치: Player · Buildings · DefenseWalls · Trees · Torch · Pickups · UI</tspan>
      <tspan x="780" dy="30">내부 노드: DayNightCycle · GroundTileMap · MobSpawner · Citizens · Animals</tspan>
    </text>
  </g>

  <g transform="translate(2600,195)">
    <rect class="box" width="420" height="210"/>
    <rect class="head-core" width="420" height="55"/>
    <text class="title" x="210" y="36">ArtifactCatalog</text>
    <text class="body" x="210" y="90"><tspan x="210">전역 유물 목록·효과</tspan><tspan x="210" dy="29">복원 상태 저장</tspan><tspan x="210" dy="29">10종 완성 여부 제공</tspan></text>
  </g>

  <path class="edge" d="M600 300 H820"/>
  <path class="edge" d="M2380 300 H2600"/>

  <!-- Characters -->
  <rect class="section" x="60" y="510" width="3080" height="405"/>
  <text class="section-title" x="90" y="550">플레이어 · 주민 · 몹</text>

  <g transform="translate(105,600)">
    <rect class="box" width="390" height="230"/><rect class="head" width="390" height="55"/>
    <text class="title" x="195" y="36">player.tscn</text>
    <text class="body" x="195" y="90"><tspan x="195">CharacterBody2D · player.gd</tspan><tspan x="195" dy="29">이동·2연격·찌르기·체력</tspan><tspan x="195" dy="29">유물 슬롯 2개·동전 보유</tspan><tspan x="195" dy="29">공격 판정 → 레이어 4</tspan></text>
  </g>
  <g transform="translate(535,600)">
    <rect class="box" width="390" height="230"/><rect class="head" width="390" height="55"/>
    <text class="title" x="195" y="36">citizen.tscn</text>
    <text class="body" x="195" y="90"><tspan x="195">CharacterBody2D · citizen.gd</tspan><tspan x="195" dy="29">체력 40·위협 회피</tspan><tspan x="195" dy="29">최대 8명·관아 기반 수용</tspan><tspan x="195" dy="29">사망 결원 매일 1명 보충</tspan></text>
  </g>
  <g transform="translate(965,600)">
    <rect class="box" width="390" height="230"/><rect class="head" width="390" height="55"/>
    <text class="title" x="195" y="36">deer.tscn</text>
    <text class="body" x="195" y="90"><tspan x="195">animal.gd · 비적대</tspan><tspan x="195" dy="29">체력 45·속도 50</tspan><tspan x="195" dy="29">동전 2개 드롭</tspan><tspan x="195" dy="29">충돌: 지형만 통과 불가</tspan></text>
  </g>
  <g transform="translate(1395,600)">
    <rect class="box" width="390" height="230"/><rect class="head" width="390" height="55"/>
    <text class="title" x="195" y="36">chicken.tscn</text>
    <text class="body" x="195" y="90"><tspan x="195">animal.gd · 비적대</tspan><tspan x="195" dy="29">체력 20·속도 25</tspan><tspan x="195" dy="29">동전 1개 드롭</tspan><tspan x="195" dy="29">일반 자연 생성</tspan></text>
  </g>
  <g transform="translate(1825,600)">
    <rect class="box" width="390" height="230"/><rect class="head" width="390" height="55"/>
    <text class="title" x="195" y="36">boar.tscn</text>
    <text class="body" x="195" y="90"><tspan x="195">animal.gd · 적대</tspan><tspan x="195" dy="29">체력 90·속도 55</tspan><tspan x="195" dy="29">동전 4개 드롭</tspan><tspan x="195" dy="29">주민·플레이어 추적</tspan></text>
  </g>
  <g transform="translate(2255,600)">
    <rect class="box" width="390" height="230"/><rect class="head" width="390" height="55"/>
    <text class="title" x="195" y="36">bear.tscn</text>
    <text class="body" x="195" y="90"><tspan x="195">animal.gd · 적대</tspan><tspan x="195" dy="29">체력 160·속도 30</tspan><tspan x="195" dy="29">동전 7개 드롭</tspan><tspan x="195" dy="29">고체력 중형 적</tspan></text>
  </g>
  <g transform="translate(2685,600)">
    <rect class="box" width="390" height="230"/><rect class="head" width="390" height="55"/>
    <text class="title" x="195" y="36">tiger.tscn</text>
    <text class="body" x="195" y="90"><tspan x="195">animal.gd · 적대</tspan><tspan x="195" dy="29">체력 200·속도 70</tspan><tspan x="195" dy="29">동전 10개·5일차 해금</tspan><tspan x="195" dy="29">최상위 위협</tspan></text>
  </g>

  <path class="edge" d="M1250 430 V500 H300 V600"/>
  <path class="edge-dynamic" d="M1600 430 V520 H730 V600"/>
  <path class="edge-dynamic" d="M1600 520 H2880 V600"/>
  <text class="edge-label" x="2020" y="505">MobSpawner가 동적 생성 · 3일 주기 습격은 30일까지 최대 15마리</text>

  <!-- Buildings -->
  <rect class="section" x="60" y="950" width="3080" height="390"/>
  <text class="section-title" x="90" y="990">마을 건물</text>

  <g transform="translate(105,1050)">
    <rect class="box" width="530" height="220"/><rect class="head" width="530" height="55"/>
    <text class="title" x="265" y="36">mine_building.tscn</text>
    <text class="body" x="265" y="91"><tspan x="265">upgrade_building.gd · 0~3단계</tspan><tspan x="265" dy="29">매일 단계 × 2 동전 생산</tspan><tspan x="265" dy="29">E키 상호작용·건설 연출</tspan></text>
  </g>
  <g transform="translate(700,1050)">
    <rect class="box" width="530" height="220"/><rect class="head" width="530" height="55"/>
    <text class="title" x="265" y="36">blacksmith_building.tscn</text>
    <text class="body" x="265" y="91"><tspan x="265">upgrade_building.gd · 0~3단계</tspan><tspan x="265" dy="29">단계마다 공격력 +15%</tspan><tspan x="265" dy="29">플레이어 전투력에 즉시 반영</tspan></text>
  </g>
  <g transform="translate(1295,1050)">
    <rect class="box" width="530" height="220"/><rect class="head" width="530" height="55"/>
    <text class="title" x="265" y="36">gwana_building.tscn</text>
    <text class="body" x="265" y="91"><tspan x="265">upgrade_building.gd · 0~4단계</tspan><tspan x="265" dy="29">주민 수용: 단계 × 2, 최대 8</tspan><tspan x="265" dy="29">4단계가 승리 조건</tspan></text>
  </g>
  <g transform="translate(1890,1050)">
    <rect class="box" width="590" height="220"/><rect class="head" width="590" height="55"/>
    <text class="title" x="295" y="36">restoration_lab_building.tscn</text>
    <text class="body" x="295" y="91"><tspan x="295">restoration_lab.gd · 0~3단계</tspan><tspan x="295" dy="29">손상 유물 복원·카탈로그 등록</tspan><tspan x="295" dy="29">단계 상승 시 비용·시간 감소</tspan></text>
  </g>
  <g transform="translate(2545,1050)">
    <rect class="box" width="530" height="220"/><rect class="head" width="530" height="55"/>
    <text class="title" x="265" y="36">defense_wall.tscn</text>
    <text class="body" x="265" y="91"><tspan x="265">defense_wall.gd · 1~3단계</tspan><tspan x="265" dy="29">인접 건물 복구도에 연동</tspan><tspan x="265" dy="29">마을 외곽 시각적 방어선</tspan></text>
  </g>
  <path class="edge" d="M1500 430 V960 H370 V1050"/>
  <path class="edge" d="M1500 960 H2810 V1050"/>

  <!-- Items and artifacts -->
  <rect class="section" x="60" y="1375" width="3080" height="570"/>
  <text class="section-title" x="90" y="1415">아이템 · 유물</text>

  <g transform="translate(105,1470)">
    <rect class="box" width="390" height="180"/><rect class="head" width="390" height="52"/>
    <text class="title" x="195" y="35">coin.tscn</text>
    <text class="body" x="195" y="88"><tspan x="195">coin.gd · 자동 획득</tspan><tspan x="195" dy="28">건물 업그레이드·복원 재화</tspan></text>
  </g>
  <g transform="translate(535,1470)">
    <rect class="box" width="430" height="180"/><rect class="head" width="430" height="52"/>
    <text class="title" x="215" y="35">artifact_item.tscn</text>
    <text class="body" x="215" y="88"><tspan x="215">artifact_item.gd · 유물 공통 부모</tspan><tspan x="215" dy="28">손상 상태·줍기·슬롯 전달</tspan></text>
  </g>

  <!-- Artifact row 1 -->
  <g transform="translate(1010,1450)">
    <rect class="box" width="380" height="150"/><rect class="head" width="380" height="48"/>
    <text class="title" x="190" y="33">phoenix_pillow.tscn</text><text class="small" x="190" y="91">ID: phoenix_pillow</text><text class="small" x="190" y="119">artifact_item 상속</text>
  </g>
  <g transform="translate(1425,1450)">
    <rect class="box" width="380" height="150"/><rect class="head" width="380" height="48"/>
    <text class="title" x="190" y="33">phoenix_vase.tscn</text><text class="small" x="190" y="91">ID: phoenix_vase</text><text class="small" x="190" y="119">artifact_item 상속</text>
  </g>
  <g transform="translate(1840,1450)">
    <rect class="box" width="380" height="150"/><rect class="head" width="380" height="48"/>
    <text class="title" x="190" y="33">phoenix_paintings.tscn</text><text class="small" x="190" y="91">ID: phoenix_paintings</text><text class="small" x="190" y="119">artifact_item 상속</text>
  </g>
  <g transform="translate(2255,1450)">
    <rect class="box" width="380" height="150"/><rect class="head" width="380" height="48"/>
    <text class="title" x="190" y="33">octagonal_brush_holder.tscn</text><text class="small" x="190" y="91">ID: octagonal_brush_holder</text><text class="small" x="190" y="119">artifact_item 상속</text>
  </g>
  <g transform="translate(2670,1450)">
    <rect class="box" width="380" height="150"/><rect class="head" width="380" height="48"/>
    <text class="title" x="190" y="33">deer_lunch_box.tscn</text><text class="small" x="190" y="91">ID: deer_lunch_box</text><text class="small" x="190" y="119">artifact_item 상속</text>
  </g>

  <!-- Artifact row 2 -->
  <g transform="translate(1010,1660)">
    <rect class="box" width="380" height="150"/><rect class="head" width="380" height="48"/>
    <text class="title" x="190" y="33">zodiac_sundial.tscn</text><text class="small" x="190" y="91">ID: zodiac_sundial</text><text class="small" x="190" y="119">artifact_item 상속</text>
  </g>
  <g transform="translate(1425,1660)">
    <rect class="box" width="380" height="150"/><rect class="head" width="380" height="48"/>
    <text class="title" x="190" y="33">round_textile.tscn</text><text class="small" x="190" y="91">ID: round_textile</text><text class="small" x="190" y="119">artifact_item 상속</text>
  </g>
  <g transform="translate(1840,1660)">
    <rect class="box" width="380" height="150"/><rect class="head" width="380" height="48"/>
    <text class="title" x="190" y="33">longevity_pouch.tscn</text><text class="small" x="190" y="91">ID: longevity_pouch</text><text class="small" x="190" y="119">artifact_item 상속</text>
  </g>
  <g transform="translate(2255,1660)">
    <rect class="box" width="380" height="150"/><rect class="head" width="380" height="48"/>
    <text class="title" x="190" y="33">guardian_tile.tscn</text><text class="small" x="190" y="91">ID: guardian_tile</text><text class="small" x="190" y="119">artifact_item 상속</text>
  </g>
  <g transform="translate(2670,1660)">
    <rect class="box" width="380" height="150"/><rect class="head" width="380" height="48"/>
    <text class="title" x="190" y="33">mother_of_pearl_brush_stand.tscn</text><text class="small" x="190" y="91">ID: mother_of_pearl_brush_stand</text><text class="small" x="190" y="119">artifact_item 상속</text>
  </g>

  <path class="edge-dynamic" d="M2020 830 V1360 H300 V1470"/>
  <text class="edge-label" x="580" y="1350">적 처치 시 동전·미복원 유물 드롭</text>
  <path class="edge-inherit" d="M965 1560 H990 V1525 H1010"/>
  <path class="edge-inherit" d="M965 1560 H990 V1735 H1010"/>

  <!-- UI -->
  <rect class="section" x="60" y="1980" width="1900" height="330"/>
  <text class="section-title" x="90" y="2020">사용자 인터페이스</text>
  <g transform="translate(105,2080)">
    <rect class="box" width="420" height="170"/><rect class="head" width="420" height="52"/>
    <text class="title" x="210" y="35">player_hud.tscn</text><text class="body" x="210" y="88"><tspan x="210">체력·동전·날짜·마을 상태</tspan><tspan x="210" dy="28">유물 슬롯·안내 메시지</tspan></text>
  </g>
  <g transform="translate(565,2080)">
    <rect class="box" width="420" height="170"/><rect class="head" width="420" height="52"/>
    <text class="title" x="210" y="35">artifact_catalog_ui.tscn</text><text class="body" x="210" y="88"><tspan x="210">복원 유물 도감</tspan><tspan x="210" dy="28">설명·효과·등록 상태</tspan></text>
  </g>
  <g transform="translate(1025,2080)">
    <rect class="box" width="420" height="170"/><rect class="head" width="420" height="52"/>
    <text class="title" x="210" y="35">pause_ui.tscn</text><text class="body" x="210" y="88"><tspan x="210">일시정지 화면</tspan><tspan x="210" dy="28">계속·재시작·종료</tspan></text>
  </g>
  <g transform="translate(1485,2080)">
    <rect class="box" width="420" height="170"/><rect class="head" width="420" height="52"/>
    <text class="title" x="210" y="35">game_over_ui.tscn</text><text class="body" x="210" y="88"><tspan x="210">패배·승리 결과 화면</tspan><tspan x="210" dy="28">일수·유물·건물·점수 집계</tspan></text>
  </g>
  <path class="edge" d="M1700 430 V1970 H985 V2080"/>

  <!-- Environment / helpers -->
  <rect class="section" x="2000" y="1980" width="1140" height="650"/>
  <text class="section-title" x="2030" y="2020">환경 · 보조 · 미사용</text>
  <g transform="translate(2045,2070)">
    <rect class="box" width="330" height="140"/><rect class="head" width="330" height="48"/>
    <text class="title" x="165" y="33">torch.tscn</text><text class="small" x="165" y="88">불꽃 애니메이션·조명</text>
  </g>
  <g transform="translate(2405,2070)">
    <rect class="box" width="330" height="140"/><rect class="head" width="330" height="48"/>
    <text class="title" x="165" y="33">e_key.tscn</text><text class="small" x="165" y="88">건물 상호작용 키 표시</text>
  </g>
  <g transform="translate(2765,2070)">
    <rect class="box" width="330" height="140"/><rect class="head-unused" width="330" height="48"/>
    <text class="title" x="165" y="33">interact_f.tscn</text><text class="small" x="165" y="88">현재 연결 없음</text>
  </g>

  <g transform="translate(2045,2250)">
    <rect class="box" width="330" height="120"/><rect class="head" width="330" height="45"/>
    <text class="title" x="165" y="31">tree_zelkova_variant01.tscn</text><text class="small" x="165" y="84">main에 반복 배치</text>
  </g>
  <g transform="translate(2405,2250)">
    <rect class="box" width="330" height="120"/><rect class="head" width="330" height="45"/>
    <text class="title" x="165" y="31">tree_zelkova_variant02.tscn</text><text class="small" x="165" y="84">main에 반복 배치</text>
  </g>
  <g transform="translate(2765,2250)">
    <rect class="box" width="330" height="120"/><rect class="head" width="330" height="45"/>
    <text class="title" x="165" y="31">tree_zelkova_variant03.tscn</text><text class="small" x="165" y="84">main에 반복 배치</text>
  </g>

  <g transform="translate(2045,2410)">
    <rect class="box" width="190" height="105"/><rect class="head-unused" width="190" height="42"/>
    <text class="small" x="95" y="29">bush_grass_variant01.tscn</text><text class="small" x="95" y="78">현재 미배치</text>
  </g>
  <g transform="translate(2255,2410)">
    <rect class="box" width="190" height="105"/><rect class="head-unused" width="190" height="42"/>
    <text class="small" x="95" y="29">bush_grass_variant02.tscn</text><text class="small" x="95" y="78">현재 미배치</text>
  </g>
  <g transform="translate(2465,2410)">
    <rect class="box" width="190" height="105"/><rect class="head-unused" width="190" height="42"/>
    <text class="small" x="95" y="29">bush_grass_variant03.tscn</text><text class="small" x="95" y="78">현재 미배치</text>
  </g>
  <g transform="translate(2675,2410)">
    <rect class="box" width="190" height="105"/><rect class="head-unused" width="190" height="42"/>
    <text class="small" x="95" y="29">bush_grass_variant04.tscn</text><text class="small" x="95" y="78">현재 미배치</text>
  </g>
  <g transform="translate(2885,2410)">
    <rect class="box" width="190" height="105"/><rect class="head-unused" width="190" height="42"/>
    <text class="small" x="95" y="29">bush_grass_variant05.tscn</text><text class="small" x="95" y="78">현재 미배치</text>
  </g>
  <g transform="translate(2045,2545)">
    <rect class="box" width="330" height="62"/><rect class="head-unused" width="330" height="62"/>
    <text class="title" x="165" y="40">bulid_farm.tscn · 현재 연결 없음</text>
  </g>

  <!-- Footer legend and victory -->
  <text class="legend" x="105" y="2380">관계 표시:</text>
  <line x1="230" y1="2375" x2="350" y2="2375" class="edge"/>
  <text class="legend" x="375" y="2380">직접 배치·참조</text>
  <line x1="560" y1="2375" x2="680" y2="2375" class="edge-dynamic"/>
  <text class="legend" x="705" y="2380">동적 생성·드롭</text>
  <line x1="900" y1="2375" x2="1020" y2="2375" class="edge-inherit"/>
  <text class="legend" x="1045" y="2380">상속</text>

  <g transform="translate(105,2450)">
    <rect class="box" width="1750" height="160"/>
    <rect class="head-core" width="1750" height="52"/>
    <text class="title" x="875" y="35">현재 핵심 게임 루프와 종료 조건</text>
    <text class="body" x="875" y="88">
      <tspan x="875">탐색·전투 → 동전/손상 유물 획득 → 건물 재건·유물 복원 → 주민·전투력 강화 → 습격 방어</tspan>
      <tspan x="875" dy="31">승리: 유물 10종 전부 복원 + 관아 4단계 · 패배: 플레이어 체력 0</tspan>
    </text>
  </g>
</svg>
